<svg xmlns="http://www.w3.org/2000/svg" version="1.1" viewBox="0.00 0.00 348.00 348.00" width="348.00" height="348.00">
<g stroke-width="2.00" fill="none" stroke-linecap="butt">
<path stroke="#2b999e" stroke-opacity="0.965" d="&#10;  M 331.54 75.07&#10;  L 329.84 77.72"/>
<path stroke="#4194eb" stroke-opacity="0.988" d="&#10;  M 244.93 163.65&#10;  L 329.84 77.72"/>
<path stroke="#4194eb" stroke-opacity="0.988" d="&#10;  M 232.10 176.10&#10;  L 147.36 262.46"/>
</g>
<path fill="#26ea5e" fill-opacity="0.937" d="&#10;  M 331.54 75.07&#10;  L 329.84 77.72&#10;  Q 329.76 77.20 329.17 77.24&#10;  Q 328.84 77.27 328.53 77.58&#10;  Q 286.35 119.88 244.36 162.36&#10;  Q 243.58 163.14 244.00 163.84&#10;  L 236.42 170.59&#10;  Q 227.72 178.84 219.39 187.39&#10;  Q 195.57 211.82 171.40 235.90&#10;  Q 165.88 241.39 163.22 244.28&#10;  C 161.58 246.07 159.56 247.16 158.17 249.09&#10;  C 155.34 253.02 151.24 255.74 148.25 259.53&#10;  Q 146.91 261.22 144.54 261.56&#10;  Q 144.04 261.63 143.65 261.31&#10;  Q 142.37 260.24 141.20 260.32&#10;  Q 138.62 256.62 135.76 252.92&#10;  C 125.83 240.09 120.34 224.75 116.21 209.34&#10;  Q 113.82 200.42 113.12 189.45&#10;  Q 112.38 177.97 113.48 167.13&#10;  Q 114.00 162.06 115.29 155.56&#10;  Q 116.41 149.95 117.40 144.27&#10;  A 1.55 1.55 0.0 0 0 116.29 142.50&#10;  Q 106.86 139.82 97.01 137.77&#10;  C 96.02 137.56 94.64 136.68 93.37 136.40&#10;  C 89.42 135.54 85.92 133.91 81.90 133.40&#10;  Q 77.99 132.91 75.03 131.59&#10;  Q 71.24 129.91 72.49 125.78&#10;  C 73.72 121.71 80.03 121.66 83.15 122.97&#10;  C 85.70 124.05 88.30 125.16 90.99 125.75&#10;  Q 104.46 128.72 118.13 133.17&#10;  Q 120.65 133.99 121.75 131.71&#10;  C 123.44 128.21 124.64 124.68 126.62 121.27&#10;  C 129.46 116.36 131.67 111.57 134.96 106.67&#10;  Q 151.41 82.14 175.93 65.85&#10;  C 182.63 61.39 189.71 58.27 196.72 54.86&#10;  Q 198.46 54.02 199.94 52.64&#10;  Q 200.41 52.20 200.42 51.56&#10;  Q 200.51 47.55 198.74 43.20&#10;  Q 196.59 37.88 195.52 32.65&#10;  C 193.95 24.95 191.59 17.71 189.62 10.04&#10;  Q 188.49 5.65 193.20 3.99&#10;  Q 193.30 3.96 193.41 3.95&#10;  Q 198.25 3.64 199.40 7.99&#10;  Q 204.87 28.69 210.14 48.06&#10;  Q 210.60 49.76 212.31 49.29&#10;  Q 234.27 43.30 255.68 44.50&#10;  Q 258.53 44.65 265.96 45.56&#10;  Q 283.61 47.71 299.37 54.91&#10;  Q 306.42 58.12 313.33 61.65&#10;  Q 322.98 66.57 331.54 75.07&#10;  Z&#10;  M 258.27 92.14&#10;  A 11.32 11.32 0.0 0 0 246.95 80.82&#10;  A 11.32 11.32 0.0 0 0 235.63 92.14&#10;  A 11.32 11.32 0.0 0 0 246.95 103.46&#10;  A 11.32 11.32 0.0 0 0 258.27 92.14&#10;  Z&#10;  M 171.88 179.19&#10;  A 11.20 11.20 0.0 0 0 160.68 167.99&#10;  A 11.20 11.20 0.0 0 0 149.48 179.19&#10;  A 11.20 11.20 0.0 0 0 160.68 190.39&#10;  A 11.20 11.20 0.0 0 0 171.88 179.19&#10;  Z"/>
<path fill="#304dda" fill-opacity="0.992" d="&#10;  M 331.54 75.07&#10;  Q 330.64 118.96 331.14 160.00&#10;  Q 331.18 163.08 328.27 163.21&#10;  Q 323.86 163.41 319.50 163.35&#10;  Q 285.45 162.93 251.39 163.27&#10;  C 249.48 163.29 247.15 163.80 244.93 163.65&#10;  L 329.84 77.72&#10;  L 331.54 75.07&#10;  Z"/>
<path fill="#53dcfd" fill-opacity="0.984" d="&#10;  M 329.84 77.72&#10;  L 244.93 163.65&#10;  Q 244.21 164.16 244.00 163.84&#10;  Q 243.58 163.14 244.36 162.36&#10;  Q 286.35 119.88 328.53 77.58&#10;  Q 328.84 77.27 329.17 77.24&#10;  Q 329.76 77.20 329.84 77.72&#10;  Z"/>
<circle fill="#171f1e" fill-opacity="0.518" cx="246.95" cy="92.14" r="11.32"/>
<circle fill="#171f1e" fill-opacity="0.518" cx="160.68" cy="179.19" r="11.20"/>
<path fill="#53dcfd" fill-opacity="0.984" d="&#10;  M 236.42 170.59&#10;  L 232.10 176.10&#10;  L 147.36 262.46&#10;  Q 142.35 264.60 141.20 260.32&#10;  Q 142.37 260.24 143.65 261.31&#10;  Q 144.04 261.63 144.54 261.56&#10;  Q 146.91 261.22 148.25 259.53&#10;  C 151.24 255.74 155.34 253.02 158.17 249.09&#10;  C 159.56 247.16 161.58 246.07 163.22 244.28&#10;  Q 165.88 241.39 171.40 235.90&#10;  Q 195.57 211.82 219.39 187.39&#10;  Q 227.72 178.84 236.42 170.59&#10;  Z"/>
<rect fill="#304dda" fill-opacity="0.992" x="-44.65" y="-44.64" transform="translate(286.36,217.67) rotate(-0.1)" width="89.30" height="89.28" rx="1.89"/>
<path fill="#304dda" fill-opacity="0.992" d="&#10;  M 232.10 176.10&#10;  Q 231.66 217.25 232.02 257.50&#10;  Q 232.04 259.82 231.56 261.17&#10;  A 1.82 1.81 -80.2 0 1 229.85 262.38&#10;  L 147.36 262.46&#10;  L 232.10 176.10&#10;  Z"/>
</svg>